<mxfile host="app.diagrams.net" modified="2023-06-29T06:44:45.370Z" agent="Mozilla/5.0 (Macintosh; Intel Mac OS X 10_15_7) AppleWebKit/537.36 (KHTML, like Gecko) Chrome/114.0.0.0 Safari/537.36" etag="8OeC4i0RBy01-do5wkkH" version="21.2.3" type="github">
  <diagram name="Page-1" id="LknvPDpUpN_7AxQZZM2L">
    <mxGraphModel dx="2074" dy="1155" grid="1" gridSize="10" guides="1" tooltips="1" connect="1" arrows="1" fold="1" page="1" pageScale="1" pageWidth="850" pageHeight="1100" math="0" shadow="0">
      <root>
        <mxCell id="0" />
        <mxCell id="1" parent="0" />
        <mxCell id="d0YDHUIfVL__pPALtXE7-2" value="oracle" style="shape=cylinder3;whiteSpace=wrap;html=1;boundedLbl=1;backgroundOutline=1;size=15;" vertex="1" parent="1">
          <mxGeometry x="100" y="180" width="60" height="80" as="geometry" />
        </mxCell>
        <mxCell id="d0YDHUIfVL__pPALtXE7-3" value="parquet&lt;br&gt;(raw)" style="shape=note;whiteSpace=wrap;html=1;backgroundOutline=1;darkOpacity=0.05;" vertex="1" parent="1">
          <mxGeometry x="310" y="170" width="80" height="100" as="geometry" />
        </mxCell>
        <mxCell id="d0YDHUIfVL__pPALtXE7-4" value="parquet&lt;br&gt;(intermediate)" style="shape=note;whiteSpace=wrap;html=1;backgroundOutline=1;darkOpacity=0.05;" vertex="1" parent="1">
          <mxGeometry x="570" y="170" width="80" height="100" as="geometry" />
        </mxCell>
        <mxCell id="d0YDHUIfVL__pPALtXE7-5" value="csv&lt;br&gt;(primary)" style="shape=note;whiteSpace=wrap;html=1;backgroundOutline=1;darkOpacity=0.05;" vertex="1" parent="1">
          <mxGeometry x="570" y="370" width="80" height="100" as="geometry" />
        </mxCell>
        <mxCell id="d0YDHUIfVL__pPALtXE7-6" value="neo4j" style="shape=cylinder3;whiteSpace=wrap;html=1;boundedLbl=1;backgroundOutline=1;size=15;" vertex="1" parent="1">
          <mxGeometry x="320" y="390" width="60" height="80" as="geometry" />
        </mxCell>
        <mxCell id="d0YDHUIfVL__pPALtXE7-7" value="neo4j" style="shape=cylinder3;whiteSpace=wrap;html=1;boundedLbl=1;backgroundOutline=1;size=15;" vertex="1" parent="1">
          <mxGeometry x="100" y="390" width="60" height="80" as="geometry" />
        </mxCell>
        <mxCell id="d0YDHUIfVL__pPALtXE7-8" value="neo4j" style="shape=cylinder3;whiteSpace=wrap;html=1;boundedLbl=1;backgroundOutline=1;size=15;" vertex="1" parent="1">
          <mxGeometry x="100" y="600" width="60" height="80" as="geometry" />
        </mxCell>
        <mxCell id="d0YDHUIfVL__pPALtXE7-10" value="csv&lt;br&gt;(risk)" style="shape=note;whiteSpace=wrap;html=1;backgroundOutline=1;darkOpacity=0.05;" vertex="1" parent="1">
          <mxGeometry x="310" y="590" width="80" height="100" as="geometry" />
        </mxCell>
        <mxCell id="d0YDHUIfVL__pPALtXE7-12" value="neo4j" style="shape=cylinder3;whiteSpace=wrap;html=1;boundedLbl=1;backgroundOutline=1;size=15;" vertex="1" parent="1">
          <mxGeometry x="580" y="600" width="60" height="80" as="geometry" />
        </mxCell>
      </root>
    </mxGraphModel>
  </diagram>
</mxfile>
